<mxfile host="app.diagrams.net" modified="2024-02-02T02:23:01.166Z" agent="Mozilla/5.0 (Windows NT 10.0; Win64; x64) AppleWebKit/537.36 (KHTML, like Gecko) Chrome/121.0.0.0 Safari/537.36" etag="MEImdYA9mGX07-nsW0o5" version="23.1.0" type="github">
  <diagram name="第 1 页" id="H_EqxO4IlUQv-saAPOEc">
    <mxGraphModel dx="1434" dy="749" grid="1" gridSize="10" guides="1" tooltips="1" connect="1" arrows="1" fold="1" page="1" pageScale="1" pageWidth="827" pageHeight="1169" math="0" shadow="0">
      <root>
        <mxCell id="0" />
        <mxCell id="1" parent="0" />
        <mxCell id="br6NM1urOWpEnAMHXOQa-3" value="" style="edgeStyle=orthogonalEdgeStyle;rounded=0;orthogonalLoop=1;jettySize=auto;html=1;" edge="1" parent="1" source="br6NM1urOWpEnAMHXOQa-1" target="br6NM1urOWpEnAMHXOQa-2">
          <mxGeometry relative="1" as="geometry" />
        </mxCell>
        <mxCell id="br6NM1urOWpEnAMHXOQa-1" value="用户查询" style="ellipse;whiteSpace=wrap;html=1;" vertex="1" parent="1">
          <mxGeometry x="120" y="80" width="120" height="80" as="geometry" />
        </mxCell>
        <mxCell id="br6NM1urOWpEnAMHXOQa-5" value="" style="edgeStyle=orthogonalEdgeStyle;rounded=0;orthogonalLoop=1;jettySize=auto;html=1;" edge="1" parent="1" source="br6NM1urOWpEnAMHXOQa-2">
          <mxGeometry relative="1" as="geometry">
            <mxPoint x="180" y="310" as="targetPoint" />
          </mxGeometry>
        </mxCell>
        <mxCell id="br6NM1urOWpEnAMHXOQa-2" value="获取当前登录用户数据" style="rounded=1;whiteSpace=wrap;html=1;" vertex="1" parent="1">
          <mxGeometry x="120" y="210" width="120" height="60" as="geometry" />
        </mxCell>
        <mxCell id="br6NM1urOWpEnAMHXOQa-20" value="" style="edgeStyle=orthogonalEdgeStyle;rounded=0;orthogonalLoop=1;jettySize=auto;html=1;" edge="1" parent="1" source="br6NM1urOWpEnAMHXOQa-6" target="br6NM1urOWpEnAMHXOQa-19">
          <mxGeometry relative="1" as="geometry" />
        </mxCell>
        <mxCell id="br6NM1urOWpEnAMHXOQa-22" value="是" style="edgeLabel;html=1;align=center;verticalAlign=middle;resizable=0;points=[];fontSize=20;" vertex="1" connectable="0" parent="br6NM1urOWpEnAMHXOQa-20">
          <mxGeometry x="-0.34" y="2" relative="1" as="geometry">
            <mxPoint as="offset" />
          </mxGeometry>
        </mxCell>
        <mxCell id="br6NM1urOWpEnAMHXOQa-28" value="" style="edgeStyle=orthogonalEdgeStyle;rounded=0;orthogonalLoop=1;jettySize=auto;html=1;" edge="1" parent="1" source="br6NM1urOWpEnAMHXOQa-6" target="br6NM1urOWpEnAMHXOQa-27">
          <mxGeometry relative="1" as="geometry" />
        </mxCell>
        <mxCell id="br6NM1urOWpEnAMHXOQa-32" value="否" style="edgeLabel;html=1;align=center;verticalAlign=middle;resizable=0;points=[];fontSize=20;" vertex="1" connectable="0" parent="br6NM1urOWpEnAMHXOQa-28">
          <mxGeometry x="-0.1273" y="-1" relative="1" as="geometry">
            <mxPoint as="offset" />
          </mxGeometry>
        </mxCell>
        <mxCell id="br6NM1urOWpEnAMHXOQa-6" value="是否拥有员工数据" style="rhombus;whiteSpace=wrap;html=1;" vertex="1" parent="1">
          <mxGeometry x="140" y="310" width="80" height="80" as="geometry" />
        </mxCell>
        <mxCell id="br6NM1urOWpEnAMHXOQa-45" value="" style="edgeStyle=orthogonalEdgeStyle;rounded=0;orthogonalLoop=1;jettySize=auto;html=1;" edge="1" parent="1" source="br6NM1urOWpEnAMHXOQa-7" target="br6NM1urOWpEnAMHXOQa-44">
          <mxGeometry relative="1" as="geometry" />
        </mxCell>
        <mxCell id="br6NM1urOWpEnAMHXOQa-7" value="根据员工id查询员工信息生效任职中主管符合的员工记录" style="rounded=1;whiteSpace=wrap;html=1;" vertex="1" parent="1">
          <mxGeometry x="320" y="440" width="120" height="60" as="geometry" />
        </mxCell>
        <mxCell id="br6NM1urOWpEnAMHXOQa-15" value="" style="edgeStyle=orthogonalEdgeStyle;rounded=0;orthogonalLoop=1;jettySize=auto;html=1;" edge="1" parent="1" source="br6NM1urOWpEnAMHXOQa-12" target="br6NM1urOWpEnAMHXOQa-14">
          <mxGeometry relative="1" as="geometry" />
        </mxCell>
        <mxCell id="br6NM1urOWpEnAMHXOQa-16" value="是" style="edgeLabel;html=1;align=center;verticalAlign=middle;resizable=0;points=[];fontSize=20;" vertex="1" connectable="0" parent="br6NM1urOWpEnAMHXOQa-15">
          <mxGeometry x="-0.1778" y="2" relative="1" as="geometry">
            <mxPoint as="offset" />
          </mxGeometry>
        </mxCell>
        <mxCell id="br6NM1urOWpEnAMHXOQa-36" value="" style="edgeStyle=orthogonalEdgeStyle;rounded=0;orthogonalLoop=1;jettySize=auto;html=1;" edge="1" parent="1" source="br6NM1urOWpEnAMHXOQa-12" target="br6NM1urOWpEnAMHXOQa-35">
          <mxGeometry relative="1" as="geometry" />
        </mxCell>
        <mxCell id="br6NM1urOWpEnAMHXOQa-12" value="是否最后一级" style="rhombus;whiteSpace=wrap;html=1;rounded=1;" vertex="1" parent="1">
          <mxGeometry x="340" y="710" width="80" height="80" as="geometry" />
        </mxCell>
        <mxCell id="br6NM1urOWpEnAMHXOQa-31" style="edgeStyle=orthogonalEdgeStyle;rounded=0;orthogonalLoop=1;jettySize=auto;html=1;" edge="1" parent="1" source="br6NM1urOWpEnAMHXOQa-14">
          <mxGeometry relative="1" as="geometry">
            <mxPoint x="180" y="990" as="targetPoint" />
          </mxGeometry>
        </mxCell>
        <mxCell id="br6NM1urOWpEnAMHXOQa-14" value="收集整理数据" style="whiteSpace=wrap;html=1;rounded=1;" vertex="1" parent="1">
          <mxGeometry x="320" y="880" width="120" height="60" as="geometry" />
        </mxCell>
        <mxCell id="br6NM1urOWpEnAMHXOQa-21" style="edgeStyle=orthogonalEdgeStyle;rounded=0;orthogonalLoop=1;jettySize=auto;html=1;entryX=0.5;entryY=0;entryDx=0;entryDy=0;" edge="1" parent="1" source="br6NM1urOWpEnAMHXOQa-19" target="br6NM1urOWpEnAMHXOQa-7">
          <mxGeometry relative="1" as="geometry" />
        </mxCell>
        <mxCell id="br6NM1urOWpEnAMHXOQa-19" value="获取配置展示字段" style="rounded=1;whiteSpace=wrap;html=1;" vertex="1" parent="1">
          <mxGeometry x="320" y="320" width="120" height="60" as="geometry" />
        </mxCell>
        <mxCell id="br6NM1urOWpEnAMHXOQa-23" value="数据响应前端" style="ellipse;whiteSpace=wrap;html=1;rounded=1;" vertex="1" parent="1">
          <mxGeometry x="120" y="990" width="120" height="80" as="geometry" />
        </mxCell>
        <mxCell id="br6NM1urOWpEnAMHXOQa-30" style="edgeStyle=orthogonalEdgeStyle;rounded=0;orthogonalLoop=1;jettySize=auto;html=1;entryX=0.5;entryY=0;entryDx=0;entryDy=0;" edge="1" parent="1" source="br6NM1urOWpEnAMHXOQa-27" target="br6NM1urOWpEnAMHXOQa-23">
          <mxGeometry relative="1" as="geometry" />
        </mxCell>
        <mxCell id="br6NM1urOWpEnAMHXOQa-27" value="空数据" style="rounded=1;whiteSpace=wrap;html=1;" vertex="1" parent="1">
          <mxGeometry x="120" y="660" width="120" height="60" as="geometry" />
        </mxCell>
        <mxCell id="br6NM1urOWpEnAMHXOQa-37" style="edgeStyle=orthogonalEdgeStyle;rounded=0;orthogonalLoop=1;jettySize=auto;html=1;entryX=1;entryY=0.5;entryDx=0;entryDy=0;" edge="1" parent="1" source="br6NM1urOWpEnAMHXOQa-35" target="br6NM1urOWpEnAMHXOQa-7">
          <mxGeometry relative="1" as="geometry">
            <mxPoint x="440" y="490" as="targetPoint" />
            <Array as="points">
              <mxPoint x="560" y="470" />
            </Array>
          </mxGeometry>
        </mxCell>
        <mxCell id="br6NM1urOWpEnAMHXOQa-38" value="递归查询下级" style="edgeLabel;html=1;align=center;verticalAlign=middle;resizable=0;points=[];fontSize=15;" vertex="1" connectable="0" parent="br6NM1urOWpEnAMHXOQa-37">
          <mxGeometry x="0.487" y="-2" relative="1" as="geometry">
            <mxPoint x="17" y="122" as="offset" />
          </mxGeometry>
        </mxCell>
        <mxCell id="br6NM1urOWpEnAMHXOQa-35" value="获取员工记录中生效任职的主管字段数据" style="whiteSpace=wrap;html=1;rounded=1;" vertex="1" parent="1">
          <mxGeometry x="510" y="720" width="120" height="60" as="geometry" />
        </mxCell>
        <mxCell id="br6NM1urOWpEnAMHXOQa-46" value="" style="edgeStyle=orthogonalEdgeStyle;rounded=0;orthogonalLoop=1;jettySize=auto;html=1;" edge="1" parent="1" source="br6NM1urOWpEnAMHXOQa-44" target="br6NM1urOWpEnAMHXOQa-12">
          <mxGeometry relative="1" as="geometry" />
        </mxCell>
        <mxCell id="br6NM1urOWpEnAMHXOQa-44" value="引用、枚举、布尔等字段翻译及格式化" style="rounded=1;whiteSpace=wrap;html=1;" vertex="1" parent="1">
          <mxGeometry x="320" y="590" width="120" height="60" as="geometry" />
        </mxCell>
      </root>
    </mxGraphModel>
  </diagram>
</mxfile>
